<svg width="397" height="168" viewBox="0 0 397 168" fill="none" xmlns="http://www.w3.org/2000/svg">
<path d="M40.751 98.8867C47.0498 98.8867 51.3711 97.251 53.7148 93.9795H54.3008L54.5205 110.972C52.1279 113.364 47.6846 114.951 41.1904 115.732C39.4326 115.977 37.2354 116.099 34.5986 116.099C32.0107 116.099 29.1787 115.61 26.1025 114.634C23.0752 113.657 20.4873 112.07 18.3389 109.873C13.8955 105.332 11.6738 98.2275 11.6738 88.5596V55.3076H0.614258C0.56543 53.8916 0.541016 52.4512 0.541016 50.9863V39.707C0.541016 38.877 0.56543 38.4619 0.614258 38.4619H11.6738V17.5879H29.6182V38.4619H49.7598V55.3076H29.6182V85.1904C29.6182 92.8564 31.7422 97.2266 35.9902 98.3008C37.3574 98.6914 38.9443 98.8867 40.751 98.8867ZM127.25 94.6387C125.443 97.0312 124.54 98.9355 124.54 100.352C124.54 101.719 124.76 102.793 125.199 103.574C125.639 104.307 126.591 105.015 128.056 105.698C131.278 107.212 136.576 108.555 143.949 109.727C151.322 110.85 157.084 112.266 161.234 113.975C165.434 115.684 168.827 117.783 171.415 120.273C176.249 125.01 178.666 131.724 178.666 140.415C178.666 149.106 175.614 155.771 169.511 160.41C163.407 165.098 154.35 167.441 142.338 167.441C130.229 167.441 120.463 164.805 113.041 159.531C105.619 154.258 101.811 147.251 101.615 138.511C101.322 128.354 105.302 121.006 113.554 116.465C111.308 114.609 109.794 112.437 109.013 109.946C108.28 107.407 107.914 104.526 107.914 101.304C107.914 95.8838 110.282 91.2939 115.019 87.5342C109.501 82.3096 106.742 75.8154 106.742 68.0518C106.742 59.3604 109.867 52.085 116.117 46.2256C122.709 40.0732 131.254 36.9971 141.752 36.9971C147.27 36.9971 152.445 38.0225 157.279 40.0732C163.627 37.3877 168.29 35.0439 171.269 33.042C174.247 30.9912 176.151 29.502 176.981 28.5742L177.421 28.6475C177.86 29.8193 178.373 31.4795 178.959 33.6279L180.277 38.9014C181.449 43.2471 182.157 46.2256 182.401 47.8369C180.253 50.1807 176.469 51.8408 171.049 52.8174C173.148 56.8701 174.198 61.167 174.198 65.708C174.198 70.249 173.417 74.375 171.854 78.0859C170.292 81.748 168.07 84.9707 165.189 87.7539C158.793 93.7598 150.639 96.7627 140.727 96.7627C135.893 96.7627 131.4 96.0547 127.25 94.6387ZM125.346 61.6797C124.662 63.4375 124.32 65.2197 124.32 67.0264C124.32 68.833 124.687 70.5664 125.419 72.2266C126.2 73.8867 127.323 75.376 128.788 76.6943C132.06 79.624 136.332 81.0889 141.605 81.0889C145.609 81.0889 149.076 79.7461 152.006 77.0605C155.082 74.1309 156.62 70.6152 156.62 66.5137C156.62 62.3633 155.229 59.0186 152.445 56.4795C149.662 53.9404 145.829 52.6709 140.946 52.6709C132.89 52.6709 127.689 55.6738 125.346 61.6797ZM143.29 151.914C155.302 151.914 161.308 147.715 161.308 139.316C161.308 135.312 159.354 132.09 155.448 129.648C151.054 126.865 143.51 124.692 132.816 123.13L129.008 122.471C125.785 124.18 123.417 126.377 121.903 129.062C120.39 131.748 119.633 134.287 119.633 136.68C119.682 139.121 120.268 141.221 121.391 142.979C122.514 144.736 124.076 146.274 126.078 147.593C130.521 150.474 136.259 151.914 143.29 151.914ZM245.097 110.459C238.163 114.219 231.889 116.099 226.273 116.099C220.658 116.099 215.849 115.586 211.845 114.561C207.841 113.486 204.447 111.924 201.664 109.873C196 105.723 193.168 99.7168 193.168 91.8555C193.168 84.8242 196.635 78.9648 203.568 74.2773C211.088 69.1992 221.293 66.6602 234.184 66.6602L237.113 66.7334C237.699 66.7822 238.358 66.8311 239.091 66.8799C239.823 66.8799 240.482 66.9287 241.068 67.0264C240.678 59.2139 237.309 54.6484 230.961 53.3301C228.861 52.8906 226.615 52.6709 224.223 52.6709C221.879 52.6709 219.56 52.8906 217.265 53.3301C215.019 53.7207 212.821 54.2578 210.673 54.9414C205.937 56.4551 202.543 58.1885 200.492 60.1416L200.272 59.9951L198.075 43.8086C206.718 39.2676 216.166 36.9971 226.42 36.9971C242.338 36.9971 252.519 42.7344 256.962 54.209C258.378 57.8711 259.086 61.9971 259.086 66.5869V93.1006C259.086 98.7646 261.088 102.622 265.092 104.673L251.835 116.831C249.052 115.366 246.806 113.242 245.097 110.459ZM241.142 80.21C239.823 79.9658 238.456 79.8438 237.04 79.8438H234.11C223.319 79.8438 216.459 82.2363 213.529 87.0215C212.65 88.4375 212.211 89.9268 212.211 91.4893C212.211 93.0518 212.479 94.4434 213.017 95.6641C213.603 96.8359 214.555 97.8125 215.873 98.5938C218.412 100.059 222.172 100.791 227.152 100.791C232.182 100.791 236.869 99.5947 241.215 97.2021C241.166 96.665 241.142 96.1035 241.142 95.5176V80.21ZM299.296 106.797C299.296 110.996 299.394 113.73 299.589 115H281.352V38.4619H299.296V44.1016C303.446 39.3652 307.792 36.9971 312.333 36.9971C316.923 36.9971 320.536 37.5586 323.173 38.6816L321.854 58.3838L321.562 58.6035C319.853 55.5762 316.312 54.0625 310.941 54.0625C308.891 54.0625 306.791 54.7705 304.643 56.1865C302.543 57.5537 300.761 59.3848 299.296 61.6797V106.797ZM377.958 108.335C371.708 113.511 364.896 116.099 357.523 116.099C349.613 116.099 343.412 113.438 338.92 108.115C334.623 102.939 332.475 95.835 332.475 86.8018V57.7246C332.475 47.959 332.255 42.3682 331.815 40.9521C331.425 39.4873 331.132 38.5596 330.937 38.1689C333.183 38.3643 335.526 38.4619 337.968 38.4619H344.047C345.658 38.4619 347.782 38.3887 350.419 38.2422V80.6494C350.419 90.708 353.153 96.543 358.622 98.1543C360.282 98.6426 362.089 98.8867 364.042 98.8867C369.804 98.8867 374.442 96.7871 377.958 92.5879V38.4619H396.122V105.625C396.122 109.922 396.317 113.047 396.708 115H377.958V108.335Z" fill="#E5E5E5"/>
<path d="M67.1182 16.6357C71.0244 10.5322 75.1016 5.16113 79.3496 0.522461L95.0967 12.9004C92.9971 15.4883 91.0439 18.0273 89.2373 20.5176C89.2373 20.5176 87.3574 23.1787 83.5977 28.501L67.1182 16.6357ZM86.3809 106.797C86.3809 110.996 86.4785 113.73 86.6738 115H68.0703V38.4619H86.3809V106.797Z" fill="#FCA311"/>
</svg>
